<svg width="30" height="30" strokeWidth="1.5" fill="#1964AB" viewBox="0 0 37 36" xmlns="http://www.w3.org/2000/svg">
<path d="M15 15C13.6151 15 12.2613 14.5892 11.1099 13.8196C9.95856 13.0499 9.06136 11.9561 8.53185 10.6764C8.00235 9.3967 7.86433 7.9887 8.13527 6.63056C8.4062 5.27241 9.07392 4.02515 10.0539 3.04659C11.0339 2.06804 12.2822 1.40217 13.6407 1.13325C14.9993 0.86432 16.4071 1.00442 17.686 1.53582C18.9649 2.06722 20.0574 2.96604 20.8253 4.11855C21.5932 5.27105 22.002 6.62545 22 8.01036C21.9945 9.86423 21.2549 11.6405 19.9431 12.9504C18.6312 14.2603 16.8539 14.9973 15 15ZM15 3.08136C14.0251 3.08136 13.0722 3.37044 12.2616 3.91205C11.451 4.45365 10.8193 5.22346 10.4462 6.12411C10.0731 7.02477 9.97552 8.01582 10.1657 8.97196C10.3559 9.92809 10.8253 10.8063 11.5147 11.4957C12.204 12.185 13.0823 12.6545 14.0384 12.8446C14.9945 13.0348 15.9856 12.9372 16.8862 12.5642C17.7869 12.1911 18.5567 11.5593 19.0983 10.7488C19.6399 9.93819 19.929 8.98522 19.929 8.01036C19.929 6.70311 19.4097 5.4494 18.4853 4.52503C17.561 3.60067 16.3072 3.08136 15 3.08136Z"/>
<path d="M16.7143 31.6907C16.4913 31.4794 16.3192 31.2248 16.21 30.9445C16.1008 30.6642 16.057 30.3648 16.0816 30.0669H4.04082V24.4803C5.48766 23.018 7.24256 21.8597 9.19193 21.0805C11.1413 20.3013 13.2417 19.9185 15.3571 19.9569H16.0918C16.045 19.6328 16.0777 19.3029 16.1874 18.9928C16.2972 18.6827 16.481 18.4007 16.7245 18.1688L16.8469 18.0625C16.3673 18.0625 15.8265 18.0045 15.3571 18.0045C12.8678 17.9485 10.3963 18.4172 8.1216 19.3767C5.84686 20.3362 3.82564 21.7625 2.20408 23.5524C2.07161 23.7197 2 23.9232 2 24.1324V30.0669C2 30.5796 2.21501 31.0713 2.59774 31.4338C2.98047 31.7963 3.49956 32 4.04082 32H17L16.7143 31.6907Z"/>
<path d="M34.8286 23.6563L32.7296 23.049C32.5795 22.562 32.3755 22.0915 32.1208 21.6453L33.1704 19.7936C33.2045 19.7195 33.2127 19.637 33.1939 19.5582C33.175 19.4794 33.13 19.4084 33.0654 19.3556L31.5436 17.912C31.486 17.8529 31.4092 17.8139 31.3254 17.8013C31.2417 17.7886 31.1559 17.8031 31.0818 17.8423L29.1507 18.8379C28.6751 18.5843 28.1719 18.3807 27.6498 18.2306L27.0096 16.2395C26.9824 16.1662 26.9309 16.1033 26.8628 16.0602C26.7946 16.0171 26.7136 15.9962 26.6318 16.0006H24.4802C24.3976 15.9997 24.3169 16.0245 24.2506 16.0712C24.1842 16.118 24.1359 16.1841 24.1129 16.2594L23.4727 18.2505C22.947 18.3956 22.4401 18.5959 21.9614 18.8478L20.0512 17.8523C19.9788 17.8138 19.8947 17.7997 19.8127 17.8124C19.7308 17.8251 19.6558 17.8637 19.5999 17.922L18.0466 19.3556C17.989 19.4131 17.952 19.4863 17.9407 19.5649C17.9294 19.6436 17.9444 19.7235 17.9836 19.7936L19.0332 21.6055C18.7556 22.0542 18.5337 22.532 18.372 23.0291L16.2729 23.6264C16.1935 23.6482 16.1238 23.6941 16.0745 23.757C16.0252 23.82 15.9991 23.8965 16 23.9749V26.0157C16.0062 26.0877 16.0358 26.156 16.0847 26.2112C16.1336 26.2665 16.1993 26.306 16.2729 26.3244L18.372 26.9316C18.5271 27.42 18.7383 27.8907 19.0017 28.3354L17.9522 30.2368C17.9121 30.305 17.8966 30.3836 17.908 30.4609C17.9193 30.5382 17.9569 30.6098 18.0151 30.6649L19.5369 32.1085C19.5964 32.1647 19.673 32.2017 19.7559 32.2142C19.8389 32.2268 19.9238 32.2141 19.9987 32.1782L21.9614 31.1826C22.4284 31.4209 22.921 31.6111 23.4307 31.7501L24.0604 33.7412C24.0863 33.8148 24.1354 33.8792 24.2011 33.9255C24.2668 33.9718 24.3459 33.9978 24.4278 34H26.5793C26.6615 33.9993 26.7414 33.9739 26.8074 33.9274C26.8735 33.8808 26.9222 33.8156 26.9466 33.7412L27.5869 31.7003C28.0898 31.5612 28.5754 31.371 29.0352 31.1328L31.0188 32.1284C31.0917 32.1651 31.1754 32.1782 31.2569 32.1656C31.3384 32.1531 31.4133 32.1155 31.4701 32.0587L33.0654 30.7048C33.1083 30.6463 33.1313 30.5768 33.1313 30.5056C33.1313 30.4344 33.1083 30.365 33.0654 30.3065L32.0159 28.4349C32.2707 27.9958 32.4748 27.5318 32.6246 27.0511L34.7237 26.4438C34.8031 26.4221 34.8728 26.3762 34.9221 26.3132C34.9713 26.2503 34.9975 26.1738 34.9966 26.0954V24.0047C35.0062 23.9375 34.9955 23.8691 34.9658 23.8075C34.9361 23.7458 34.8885 23.6934 34.8286 23.6563ZM25.5613 28.3154C24.8671 28.3174 24.1879 28.1238 23.6098 27.7592C23.0317 27.3946 22.5808 26.8754 22.3142 26.2674C22.0476 25.6594 21.9773 24.99 22.1122 24.3441C22.2471 23.6982 22.5812 23.1048 23.0721 22.6391C23.5629 22.1735 24.1885 21.8566 24.8695 21.7286C25.5504 21.6007 26.2561 21.6673 26.8971 21.9202C27.5381 22.1732 28.0854 22.6009 28.4698 23.1492C28.8542 23.6976 29.0583 24.3418 29.0562 25.0003C29.0534 25.8787 28.6843 26.7204 28.0295 27.3416C27.3747 27.9627 26.4873 28.3128 25.5613 28.3154Z"/>
</svg>
