<svg width="18" height="18" viewBox="0 0 18 18" fill="#1964AB" xmlns="http://www.w3.org/2000/svg">
<path fill="#1964AB" d="M17.8966 11.1213C17.8494 11.074 17.7902 11.0405 17.7255 11.0243C17.6607 11.0081 17.5927 11.0099 17.5288 11.0294C16.0625 11.4725 14.5035 11.5095 13.0178 11.1366C11.5321 10.7637 10.1754 9.99471 9.09233 8.91165C8.00924 7.82859 7.24031 6.47201 6.86746 4.98646C6.49461 3.5009 6.53182 1.94204 6.97512 0.475967C6.99479 0.412072 6.99668 0.344022 6.98057 0.279137C6.96445 0.214251 6.93096 0.154984 6.88368 0.10771C6.8364 0.0604364 6.77713 0.0269439 6.71223 0.0108349C6.64734 -0.00527407 6.57928 -0.00339002 6.51538 0.0162843C4.65085 0.588305 3.01435 1.73398 1.83895 3.29014C0.510971 5.06059 -0.133755 7.25058 0.0231441 9.45807C0.180043 11.6655 1.12804 13.7424 2.69308 15.3072C4.25812 16.8721 6.33518 17.82 8.54291 17.9769C10.7507 18.1337 12.9409 17.4891 14.7115 16.1613C16.2674 14.9855 17.4125 13.3489 17.9839 11.4844C18.0031 11.4216 18.0052 11.3548 17.9898 11.291C17.9744 11.2271 17.9423 11.1685 17.8966 11.1213ZM14.272 15.5775C12.6431 16.8032 10.6263 17.3995 8.59273 17.2566C6.55911 17.1138 4.64549 16.2414 3.20396 14.8001C1.76243 13.3587 0.889979 11.4453 0.74713 9.41194C0.604281 7.37855 1.20065 5.36199 2.4265 3.73328C3.3704 2.48521 4.63874 1.52008 6.09334 0.943004C5.76038 2.45231 5.813 4.02116 6.24634 5.50478C6.67968 6.98839 7.47978 8.33896 8.5728 9.43186C9.66582 10.5248 11.0165 11.3248 12.5003 11.7581C13.9841 12.1913 15.5531 12.244 17.0626 11.911C16.4855 13.3655 15.5202 14.6337 14.272 15.5775Z"/>
</svg>
