<svg width="15" height="15" viewBox="0 0 15 15" fill="#1964AB" xmlns="http://www.w3.org/2000/svg">
<path d="M7.42188 4.15625C6.776 4.15625 6.14462 4.34778 5.60759 4.70661C5.07056 5.06544 4.652 5.57546 4.40483 6.17217C4.15766 6.76889 4.09299 7.4255 4.219 8.05897C4.345 8.69244 4.65602 9.27431 5.11273 9.73102C5.56944 10.1877 6.15131 10.4987 6.78478 10.6248C7.41825 10.7508 8.07486 10.6861 8.67158 10.4389C9.26829 10.1918 9.77831 9.77319 10.1371 9.23616C10.496 8.69913 10.6875 8.06775 10.6875 7.42188C10.6865 6.55608 10.3421 5.72602 9.72994 5.11381C9.11773 4.5016 8.28767 4.15723 7.42188 4.15625ZM7.42188 10.0938C6.89343 10.0938 6.37685 9.93705 5.93746 9.64346C5.49807 9.34987 5.15561 8.93258 4.95338 8.44436C4.75116 7.95614 4.69824 7.41891 4.80134 6.90062C4.90443 6.38232 5.15891 5.90624 5.53257 5.53257C5.90624 5.15891 6.38232 4.90443 6.90062 4.80134C7.41891 4.69824 7.95614 4.75116 8.44436 4.95338C8.93258 5.15561 9.34987 5.49807 9.64346 5.93746C9.93705 6.37685 10.0937 6.89343 10.0938 7.42188C10.0937 8.1305 9.81225 8.8101 9.31118 9.31118C8.8101 9.81225 8.1305 10.0938 7.42188 10.0938ZM10.9844 0H3.85938C2.83617 0.00117859 1.8552 0.408169 1.13169 1.13169C0.408169 1.8552 0.00117859 2.83617 0 3.85938V10.9844C0.00117859 12.0076 0.408169 12.9885 1.13169 13.7121C1.8552 14.4356 2.83617 14.8426 3.85938 14.8438H10.9844C12.0076 14.8426 12.9885 14.4356 13.7121 13.7121C14.4356 12.9885 14.8426 12.0076 14.8438 10.9844V3.85938C14.8426 2.83617 14.4356 1.8552 13.7121 1.13169C12.9885 0.408169 12.0076 0.00117859 10.9844 0ZM14.25 10.9844C14.249 11.8502 13.9046 12.6802 13.2924 13.2924C12.6802 13.9046 11.8502 14.249 10.9844 14.25H3.85938C2.99358 14.249 2.16352 13.9046 1.55131 13.2924C0.939103 12.6802 0.594732 11.8502 0.59375 10.9844V3.85938C0.594732 2.99358 0.939103 2.16352 1.55131 1.55131C2.16352 0.939103 2.99358 0.594732 3.85938 0.59375H10.9844C11.8502 0.594732 12.6802 0.939103 13.2924 1.55131C13.9046 2.16352 14.249 2.99358 14.25 3.85938V10.9844ZM11.875 3.5625C11.875 3.67993 11.8402 3.79473 11.7749 3.89237C11.7097 3.99001 11.617 4.06611 11.5085 4.11105C11.4 4.15599 11.2806 4.16775 11.1654 4.14484C11.0502 4.12193 10.9444 4.06538 10.8614 3.98234C10.7784 3.89931 10.7218 3.79351 10.6989 3.67833C10.676 3.56316 10.6878 3.44378 10.7327 3.33528C10.7776 3.22679 10.8537 3.13406 10.9514 3.06881C11.049 3.00357 11.1638 2.96875 11.2812 2.96875C11.4387 2.96875 11.5897 3.03131 11.7011 3.14266C11.8124 3.25401 11.875 3.40503 11.875 3.5625Z" fill="#1964AB"/>
</svg>
