<svg width="30" height="30" viewBox="0 0 33 33" strokeWidth="1.5" fill="#1964AB" xmlns="http://www.w3.org/2000/svg">
<path d="M26.0529 26.0526C26.9742 26.0526 27.8577 26.4186 28.5092 27.0701C29.1606 27.7215 29.5266 28.605 29.5266 29.5263C29.5266 30.4476 29.1606 31.3311 28.5092 31.9826C27.8577 32.634 26.9742 33 26.0529 33C25.1316 33 24.248 32.634 23.5966 31.9826C22.9452 31.3311 22.5792 30.4476 22.5792 29.5263C22.5792 28.605 22.9452 27.7215 23.5966 27.0701C24.248 26.4186 25.1316 26.0526 26.0529 26.0526ZM26.0529 27.7895C25.5922 27.7895 25.1505 27.9725 24.8247 28.2982C24.499 28.6239 24.316 29.0657 24.316 29.5263C24.316 29.987 24.499 30.4287 24.8247 30.7545C25.1505 31.0802 25.5922 31.2632 26.0529 31.2632C26.5135 31.2632 26.9553 31.0802 27.281 30.7545C27.6068 30.4287 27.7897 29.987 27.7897 29.5263C27.7897 29.0657 27.6068 28.6239 27.281 28.2982C26.9553 27.9725 26.5135 27.7895 26.0529 27.7895ZM10.4212 26.0526C11.3424 26.0526 12.226 26.4186 12.8774 27.0701C13.5289 27.7215 13.8949 28.605 13.8949 29.5263C13.8949 30.4476 13.5289 31.3311 12.8774 31.9826C12.226 32.634 11.3424 33 10.4212 33C9.49987 33 8.61631 32.634 7.96487 31.9826C7.31342 31.3311 6.94744 30.4476 6.94744 29.5263C6.94744 28.605 7.31342 27.7215 7.96487 27.0701C8.61631 26.4186 9.49987 26.0526 10.4212 26.0526ZM10.4212 27.7895C9.96051 27.7895 9.51874 27.9725 9.19301 28.2982C8.86729 28.6239 8.6843 29.0657 8.6843 29.5263C8.6843 29.987 8.86729 30.4287 9.19301 30.7545C9.51874 31.0802 9.96051 31.2632 10.4212 31.2632C10.8818 31.2632 11.3236 31.0802 11.6493 30.7545C11.975 30.4287 12.158 29.987 12.158 29.5263C12.158 29.0657 11.975 28.6239 11.6493 28.2982C11.3236 27.9725 10.8818 27.7895 10.4212 27.7895ZM29.5266 5.21053H5.68474L10.1085 15.6316H24.316C24.5861 15.632 24.8525 15.569 25.0938 15.4478C25.3352 15.3265 25.5447 15.1503 25.7055 14.9334L30.9161 7.986H30.9178C31.1105 7.72783 31.2275 7.42118 31.2559 7.10032C31.2842 6.77946 31.2228 6.45703 31.0785 6.16907C30.9341 5.88111 30.7125 5.63897 30.4385 5.46969C30.1644 5.30042 29.8487 5.21069 29.5266 5.21053ZM24.316 17.3684H10.1884L8.85798 20.0779L8.6843 20.8421C8.6843 21.3027 8.86729 21.7445 9.19301 22.0702C9.51874 22.396 9.96051 22.5789 10.4212 22.5789H29.5266V24.3158H10.4212C9.81632 24.3161 9.2219 24.1585 8.69669 23.8585C8.17148 23.5585 7.73369 23.1266 7.42665 22.6055C7.1196 22.0844 6.95394 21.4922 6.94604 20.8874C6.93815 20.2827 7.08831 19.6863 7.38165 19.1574L8.63219 16.5973L2.32392 1.73684H0V0H3.47372L4.94831 3.47368H29.5266C30.1829 3.47375 30.8258 3.65974 31.3808 4.01012C31.9357 4.36049 32.3801 4.86092 32.6623 5.45343C32.9446 6.04594 33.0532 6.70629 32.9756 7.358C32.8981 8.00971 32.6374 8.6261 32.2239 9.13579L27.1627 15.8852C26.8427 16.3433 26.4168 16.7175 25.9212 16.9757C25.4256 17.234 24.8749 17.3687 24.316 17.3684Z"/>
</svg>
