<svg width="16" height="14" viewBox="0 0 16 14" fill="#1964AB" xmlns="http://www.w3.org/2000/svg">
<path d="M15.4167 1.9649C15.3942 1.91059 15.3561 1.86417 15.3072 1.83154C15.2584 1.7989 15.2009 1.78152 15.1421 1.78158H12.7077C12.4306 1.24893 12.0138 0.801735 11.5019 0.48794C10.9901 0.174146 10.4024 0.00558395 9.80206 0.000327062C9.37714 -0.00577364 8.95532 0.0735292 8.56162 0.233531C8.16793 0.393533 7.81038 0.630975 7.51018 0.931772C7.19965 1.23586 6.95317 1.59907 6.78529 1.99997C6.61741 2.40086 6.53153 2.83133 6.53272 3.26595V4.09423C3.29307 3.39732 0.595223 0.709858 0.566278 0.680171C0.52652 0.640054 0.476142 0.612111 0.421059 0.599622C0.365977 0.587133 0.308474 0.590616 0.255301 0.609663C0.202015 0.628837 0.155324 0.662853 0.120739 0.707696C0.0861527 0.75254 0.0651146 0.806339 0.0601063 0.862749C-0.251612 4.32283 0.748114 6.63029 1.64171 7.95732C2.12748 8.69381 2.73628 9.34128 3.44151 9.87142C2.27776 11.3922 0.215965 12.1819 0.194442 12.19C0.152125 12.2056 0.113907 12.2306 0.0826873 12.2631C0.0514678 12.2956 0.0280672 12.3348 0.0142612 12.3778C0.00045516 12.4207 -0.00339376 12.4662 0.00300652 12.5108C0.0094068 12.5554 0.025888 12.598 0.0511998 12.6353C0.0712389 12.665 0.25827 12.9322 0.759247 13.1816C1.39159 13.4963 2.23546 13.6566 3.2671 13.6566C8.39487 13.6566 12.6728 9.68142 13.0558 4.58482L15.3521 2.28849C15.3937 2.24699 15.422 2.19409 15.4335 2.13649C15.445 2.07889 15.4392 2.01917 15.4167 1.9649ZM12.5571 4.24341C12.506 4.29462 12.4754 4.36271 12.471 4.4349C12.1622 9.27322 8.11952 13.0628 3.2671 13.0628C1.94229 13.0628 1.21643 12.7741 0.854989 12.5529C1.62464 12.1952 3.18917 11.3402 4.108 9.96197C4.13034 9.92824 4.14555 9.8903 4.1527 9.85048C4.15984 9.81066 4.15878 9.7698 4.14956 9.73041C4.14062 9.69084 4.12353 9.65357 4.09938 9.62098C4.07523 9.5884 4.04454 9.56121 4.00929 9.54115C3.99964 9.53521 3.0155 8.9474 2.11522 7.60033C1.33741 6.43583 0.475731 4.46162 0.609325 1.53294C1.58679 2.39537 3.98479 4.27904 6.78061 4.74662C6.82349 4.75379 6.86743 4.75147 6.90931 4.7398C6.95119 4.72813 6.99 4.7074 7.02299 4.67908C7.05598 4.65076 7.08235 4.61555 7.10023 4.57592C7.11811 4.53629 7.12707 4.49321 7.12647 4.44974V3.26595C7.12587 2.91 7.19641 2.55751 7.33393 2.22919C7.47145 1.90087 7.67319 1.60334 7.92729 1.35408C8.17263 1.1089 8.46459 0.915335 8.78594 0.784806C9.10729 0.654277 9.45153 0.589426 9.79835 0.594077C10.8523 0.607436 11.8386 1.25166 12.252 2.19794C12.2749 2.2501 12.3124 2.29456 12.3599 2.32602C12.4074 2.35747 12.463 2.37459 12.5199 2.37533H14.4251L12.5571 4.24341Z" fill="#1964AB"/>
</svg>
