<svg width="17" height="13" viewBox="0 0 17 13" fill="#1964AB" xmlns="http://www.w3.org/2000/svg">
<path d="M10.5554 5.98724L6.99289 3.61224C6.94817 3.5824 6.89619 3.56527 6.84249 3.56267C6.78879 3.56007 6.7354 3.5721 6.688 3.59747C6.64061 3.62284 6.60099 3.66061 6.57339 3.70674C6.54578 3.75287 6.53122 3.80563 6.53125 3.85939V8.60939C6.53119 8.66315 6.54572 8.71591 6.5733 8.76205C6.60088 8.80819 6.64047 8.84598 6.68785 8.87138C6.73527 8.89678 6.7887 8.90881 6.84243 8.90619C6.89615 8.90358 6.94816 8.88642 6.99289 8.85654L10.5554 6.48154C10.5961 6.45444 10.6295 6.4177 10.6526 6.37458C10.6757 6.33146 10.6878 6.2833 10.6878 6.23439C10.6878 6.18548 10.6757 6.13732 10.6526 6.0942C10.6295 6.05108 10.5961 6.01434 10.5554 5.98724ZM7.125 8.05498V4.4138L9.85551 6.23439L7.125 8.05498ZM15.6201 1.96904C15.5621 1.74097 15.4506 1.52996 15.295 1.35342C15.1394 1.17689 14.944 1.03989 14.725 0.953726C12.2164 -0.0155709 8.1841 1.51309e-05 8.01562 1.51309e-05C7.84715 1.51309e-05 3.81484 -0.0155709 1.30625 0.953726C1.08734 1.03982 0.892019 1.1767 0.736397 1.3531C0.580774 1.5295 0.469303 1.74036 0.411172 1.9683C0.222656 2.69193 0 4.0197 0 6.23439C0 8.44908 0.222656 9.77685 0.411172 10.5005C0.469303 10.7284 0.580774 10.9393 0.736397 11.1157C0.892019 11.2921 1.08734 11.429 1.30625 11.5151C3.81484 12.4844 7.84715 12.4688 8.01562 12.4688H8.06832C8.57969 12.4688 12.3418 12.4369 14.7272 11.5151C14.9461 11.429 15.1415 11.2921 15.2971 11.1157C15.4527 10.9393 15.5642 10.7284 15.6223 10.5005C15.8086 9.77611 16.0312 8.44908 16.0312 6.23439C16.0312 4.0197 15.8086 2.69193 15.6201 1.9683V1.96904ZM15.0456 10.3558C15.0111 10.4926 14.9446 10.6192 14.8516 10.7253C14.7586 10.8314 14.6416 10.9138 14.5105 10.9658C12.108 11.8891 8.05793 11.875 8.01562 11.875C7.97332 11.875 3.92543 11.8891 1.52297 10.9614C1.39183 10.9093 1.27492 10.8269 1.18189 10.7208C1.08885 10.6148 1.02235 10.4881 0.987852 10.3513C0.806758 9.66107 0.59375 8.38673 0.59375 6.23439C0.59375 4.08205 0.806758 2.80771 0.985625 2.11748C1.02012 1.98067 1.08663 1.85402 1.17966 1.74795C1.2727 1.64188 1.3896 1.55943 1.52074 1.5074C3.9232 0.579663 7.97332 0.593765 8.01562 0.593765C8.05793 0.593765 12.1058 0.578921 14.5083 1.5074C14.6394 1.55943 14.7563 1.64188 14.8494 1.74795C14.9424 1.85402 15.0089 1.98067 15.0434 2.11748C15.2245 2.80771 15.4375 4.08205 15.4375 6.23439C15.4375 8.38673 15.2245 9.66107 15.0456 10.3513V10.3558Z" fill="#1964AB"/>
</svg>
